<svg width="100" height="135" viewBox="0 0 100 135" fill="none" xmlns="http://www.w3.org/2000/svg">
<path d="M49.1573 60.2245C44.6406 59.4408 40.2871 57.9062 36.2773 55.6845C30.4173 52.3545 26.0173 47.7545 24.0173 41.1745C23.6984 40.1055 23.5864 38.9855 23.6873 37.8745C23.686 37.4037 23.8232 36.9428 24.0818 36.5494C24.3404 36.156 24.7091 35.8473 25.1419 35.6619C25.5746 35.4764 26.0524 35.4223 26.5156 35.5063C26.9789 35.5904 27.4072 35.8088 27.7473 36.1345C28.4761 36.7078 29.0902 37.4135 29.5573 38.2145C34.0973 45.9145 41.2573 49.5945 49.6973 51.3845C49.8602 51.4005 50.0243 51.4005 50.1873 51.3845C50.4973 49.4445 50.7873 47.4745 51.1173 45.5045C52.7873 35.5845 54.9173 25.7945 59.2473 16.6245C61.3087 11.8438 64.4592 7.61116 68.4473 4.2645C74.6573 -0.655505 83.8773 -1.4255 90.3673 2.5145C95.3673 5.5145 97.8973 10.2745 98.8973 15.8645C100.457 24.5245 98.2873 32.5745 94.5573 40.3045C91.2188 47.4982 85.5928 53.3844 78.5573 57.0445C74.5409 59.1557 70.1397 60.4346 65.6173 60.8045C64.8173 60.8645 64.6173 61.1945 64.4973 61.9045C62.6373 75.0945 60.8173 88.2945 57.9673 101.314C57.7973 102.084 57.9673 102.394 58.6573 102.824C61.0981 104.205 63.4495 105.738 65.6973 107.414C72.7746 112.965 78.9656 119.56 84.0573 126.974C84.9574 128.453 85.7238 130.009 86.3473 131.624C86.5128 132.058 86.5644 132.526 86.4973 132.984C86.5075 133.224 86.4538 133.462 86.3418 133.673C86.2298 133.885 86.0634 134.063 85.8599 134.189C85.6563 134.316 85.4228 134.385 85.1833 134.391C84.9439 134.398 84.7071 134.34 84.4973 134.224C83.504 133.802 82.5802 133.233 81.7573 132.535C78.3373 129.535 74.9873 126.414 71.6173 123.324C67.5517 119.51 63.1431 116.079 58.4473 113.074C57.5673 112.524 56.6573 112.074 55.7673 111.504C55.6173 111.614 55.4873 111.674 55.4473 111.764C51.9273 120.924 45.0473 126.324 35.6973 128.684C27.8642 130.741 19.6111 130.557 11.8773 128.154C8.39341 127.139 5.30678 125.076 3.03727 122.244C-1.21273 116.884 -0.962726 109.404 3.53727 103.714C7.25727 99.0445 12.2873 96.7145 18.0373 95.7145C26.2017 94.412 34.5475 94.8172 42.5473 96.9045C42.9073 96.9945 43.2773 97.0645 43.6273 97.1445C44.7773 93.8245 49.3673 63.1445 49.1573 60.2245ZM65.9373 51.4345C66.4529 51.4175 66.9671 51.3707 67.4773 51.2945C71.7883 50.4135 75.7394 48.2691 78.8273 45.1345C83.2539 40.5985 86.2901 34.8904 87.5773 28.6845C88.6225 25.0209 88.6225 21.1381 87.5773 17.4745C87.2653 16.2862 86.6073 15.2175 85.6868 14.4038C84.7663 13.5902 83.6248 13.0683 82.4073 12.9045C79.9773 12.5045 78.2473 13.7145 76.7673 15.4345C74.8646 17.7771 73.3919 20.4382 72.4173 23.2945C69.9544 30.0796 68.1625 37.0898 67.0673 44.2245C66.6973 46.5645 66.3273 48.9245 65.9373 51.4345ZM41.3973 106.054C41.0173 105.884 40.7873 105.754 40.5373 105.674C33.9512 103.438 26.8702 103.091 20.0973 104.674C17.6493 105.134 15.3917 106.307 13.6073 108.044C11.2173 110.544 11.4273 113.694 14.2173 115.744C15.144 116.436 16.1823 116.964 17.2873 117.304C22.2743 118.893 27.6719 118.587 32.4473 116.444C36.9773 114.404 39.8073 110.844 41.3973 106.054Z" fill="white"/>
</svg>
